<mxfile host="app.diagrams.net" modified="2024-05-30T10:21:07.569Z" agent="Mozilla/5.0 (Macintosh; Intel Mac OS X 10_15_7) AppleWebKit/537.36 (KHTML, like Gecko) Chrome/125.0.0.0 Safari/537.36" etag="pxbZadvqC6IT05W7vvAa" version="24.4.10" type="device">
  <diagram name="Page-1" id="uiPUXeWtWGbIMVe5A0ql">
    <mxGraphModel dx="2074" dy="1146" grid="1" gridSize="10" guides="1" tooltips="1" connect="1" arrows="1" fold="1" page="1" pageScale="1" pageWidth="850" pageHeight="1100" math="0" shadow="0">
      <root>
        <mxCell id="0" />
        <mxCell id="1" parent="0" />
        <mxCell id="62F7zYhxVCOal3eroaou-1" value="" style="rounded=0;whiteSpace=wrap;html=1;" vertex="1" parent="1">
          <mxGeometry x="50" y="266" width="400" height="240" as="geometry" />
        </mxCell>
        <mxCell id="62F7zYhxVCOal3eroaou-2" value="" style="outlineConnect=0;dashed=0;verticalLabelPosition=bottom;verticalAlign=top;align=center;html=1;shape=mxgraph.aws3.vpc;fillColor=#F58534;gradientColor=none;" vertex="1" parent="1">
          <mxGeometry x="410" y="280" width="37.5" height="41" as="geometry" />
        </mxCell>
        <mxCell id="62F7zYhxVCOal3eroaou-3" value="Private" style="rounded=0;whiteSpace=wrap;html=1;verticalAlign=top;" vertex="1" parent="1">
          <mxGeometry x="300" y="321" width="120" height="130" as="geometry" />
        </mxCell>
        <mxCell id="62F7zYhxVCOal3eroaou-4" value="Public" style="rounded=0;whiteSpace=wrap;html=1;verticalAlign=top;" vertex="1" parent="1">
          <mxGeometry x="140" y="321" width="120" height="130" as="geometry" />
        </mxCell>
        <mxCell id="62F7zYhxVCOal3eroaou-5" value="" style="outlineConnect=0;dashed=0;verticalLabelPosition=bottom;verticalAlign=top;align=center;html=1;shape=mxgraph.aws3.application_load_balancer;fillColor=#F58534;gradientColor=none;textShadow=0;" vertex="1" parent="1">
          <mxGeometry x="70" y="321" width="39" height="41" as="geometry" />
        </mxCell>
        <mxCell id="62F7zYhxVCOal3eroaou-6" value="" style="sketch=0;points=[[0,0,0],[0.25,0,0],[0.5,0,0],[0.75,0,0],[1,0,0],[0,1,0],[0.25,1,0],[0.5,1,0],[0.75,1,0],[1,1,0],[0,0.25,0],[0,0.5,0],[0,0.75,0],[1,0.25,0],[1,0.5,0],[1,0.75,0]];outlineConnect=0;fontColor=#232F3E;fillColor=#C925D1;strokeColor=#ffffff;dashed=0;verticalLabelPosition=bottom;verticalAlign=top;align=center;html=1;fontSize=12;fontStyle=0;aspect=fixed;shape=mxgraph.aws4.resourceIcon;resIcon=mxgraph.aws4.rds;" vertex="1" parent="1">
          <mxGeometry x="370" y="374.5" width="40" height="40" as="geometry" />
        </mxCell>
        <mxCell id="62F7zYhxVCOal3eroaou-7" value="" style="outlineConnect=0;dashed=0;verticalLabelPosition=bottom;verticalAlign=top;align=center;html=1;shape=mxgraph.aws3.internet_gateway;fillColor=#F58534;gradientColor=none;" vertex="1" parent="1">
          <mxGeometry x="70" y="451" width="50" height="50" as="geometry" />
        </mxCell>
        <mxCell id="62F7zYhxVCOal3eroaou-8" value="" style="outlineConnect=0;dashed=0;verticalLabelPosition=bottom;verticalAlign=top;align=center;html=1;shape=mxgraph.aws3.ecs;fillColor=#F58534;gradientColor=none;" vertex="1" parent="1">
          <mxGeometry x="190" y="367.25" width="42" height="37.5" as="geometry" />
        </mxCell>
      </root>
    </mxGraphModel>
  </diagram>
</mxfile>
